<?xml version="1.0" encoding="utf-8"?>
<!-- Generator: Adobe Illustrator 19.1.0, SVG Export Plug-In . SVG Version: 6.00 Build 0)  -->
<svg version="1.1" id="Layer_1" xmlns="http://www.w3.org/2000/svg" xmlns:xlink="http://www.w3.org/1999/xlink" x="0px" y="0px"
	 viewBox="0 0 57 57" style="enable-background:new 0 0 57 57;" xml:space="preserve">
<style type="text/css">
	.st0{fill:#469FBD;}
	.st1{fill:#3B8BA6;}
</style>
<g>
	<path class="st0" d="M47.4,9.3c-4.9-4.9-11.7-7.9-19.2-7.9C13.2,1.3,1,13.5,1,28.5C1,36,4.1,42.8,9,47.7s11.7,8,19.2,8
		c1.4,0,2.8-0.1,4.2-0.3L14.4,39.2v-3.1H16V20.9h-4.5v1.5H8.4v-4.6h18.3l1.4,1.2v-1.2h4.6l1.5,1.4v-1.4l4.6,12.5l-4.5-12.5l6.8,6.1
		l-2.3,6.3l4.6-12.5h4.6l7.1,6.4C54.1,18.4,51.3,13.2,47.4,9.3z M22,37.7v1.5h0.1v-4.6L22,37.7z M22,37.7v1.5h0.1v-4.6L22,37.7z"/>
	<path class="st1" d="M55.3,28.5c0,3-0.5,5.9-1.4,8.5c0,0.1-0.1,0.3-0.1,0.4c0,0.1-0.1,0.2-0.1,0.4c-0.3,0.8-0.7,1.6-1,2.4
		c0,0,0,0,0,0.1c0,0,0,0,0,0c-0.1,0.2-0.2,0.3-0.2,0.4c-1.9,3.8-1.7,3.3-1.1,2c-0.1,0.2-0.3,0.4-0.5,0.7c-0.1,0.1-0.1,0.2-0.2,0.3
		c-0.2,0.2-0.3,0.4-0.5,0.7c-0.5,0.7-1,1.3-1.6,2l0,0c-0.2,0.2-0.4,0.5-0.8,0.8l0,0c-0.1,0.1-0.1,0.1-0.2,0.2l-0.3,0.3
		c0,0,0,0-0.1,0.1c-0.2,0.2-0.9,0.9-1.6,1.4l0,0c0,0,0,0,0,0c0,0,0,0-0.1,0.1c0,0-0.1,0.1-0.1,0.1c-1.6,1.3-3.3,2.4-5.1,3.3
		c-0.1,0-0.1,0.1-0.2,0.1c-0.6,0.3-1.2,0.6-1.7,0.8l-0.1,0L37,54.2l0,0l0,0l0,0c-0.3,0.1-0.7,0.2-1,0.3l0,0
		c-1.2,0.4-2.4,0.7-3.6,0.8l-18-16.2h6.1v-3.1H19V20.9h4.7v1.5h3.1v-4.6l1.4,1.2v1.8h1.5v15.2h-4.5v-1.5h-3.1L22,37.7v1.5h12.2v-3.1
		h-1.5V17.8l1.5,1.4v7.4l4.6,12.5L43.3,26v10h-1.5v3.1h6.1v-3.1h-1.5V20.9h1.5v-3.1l7.1,6.4l0,0v0c0,0,0,0,0,0.1c0,0,0,0,0,0.1
		s0,0.1,0,0.1c0,0.1,0,0.2,0,0.4c0,0.1,0,0.2,0,0.3c0,0.1,0,0.2,0,0.3C55.3,26.5,55.3,27.5,55.3,28.5z"/>
	<path class="st1" d="M47.7,47.3l-0.2,0.2C47.6,47.5,47.6,47.4,47.7,47.3L47.7,47.3z"/>
	<polygon class="st1" points="41.1,24 38.8,30.3 34.3,17.8 	"/>
	<polygon class="st1" points="16,20.9 16,29.2 8.4,22.4 11.5,22.4 11.5,20.9 	"/>
	<polygon class="st1" points="47.9,36.1 47.9,36.1 46.4,36.1 	"/>
	<path class="st1" d="M53.7,37.8c-0.3,0.8-0.6,1.6-1,2.4C53,39.5,53.4,38.7,53.7,37.8z"/>
</g>
</svg>
