<?xml version="1.0" encoding="utf-8"?>
<!-- Generator: Adobe Illustrator 19.1.0, SVG Export Plug-In . SVG Version: 6.00 Build 0)  -->
<svg version="1.1" id="Layer_1" xmlns="http://www.w3.org/2000/svg" xmlns:xlink="http://www.w3.org/1999/xlink" x="0px" y="0px"
	 viewBox="0 0 72 72" style="enable-background:new 0 0 72 72;" xml:space="preserve">
<style type="text/css">
	.st0{fill:#469FBD;}
	.st1{fill:#3B8BA6;}
</style>
<g>
	<path class="st0" d="M60.3,11.7c-6.2-6.2-14.8-10-24.3-10C17,1.6,1.6,17,1.6,36c0,9.5,3.9,18.1,10.1,24.3
		c6.2,6.2,14.8,10.1,24.3,10.1c1.8,0,3.6-0.2,5.3-0.4L18.6,49.5v-3.9h2V26.4h-5.7v1.9H11v-5.8h23.2l1.7,1.5v-1.5h5.8l1.9,1.7v-1.8
		l5.8,15.8l-5.7-15.8l8.6,7.8l-2.9,8l5.8-15.8H61l9,8.1C68.8,23.2,65.3,16.7,60.3,11.7z M28.2,47.6v2h0.1v-5.8L28.2,47.6z
		 M28.2,47.6v2h0.1v-5.8L28.2,47.6z"/>
	<path class="st1" d="M70.4,36c0,3.8-0.6,7.4-1.7,10.8c-0.1,0.2-0.1,0.4-0.2,0.5c-0.1,0.2-0.1,0.3-0.2,0.5c-0.4,1-0.8,2.1-1.3,3.1
		c0,0.1-0.1,0.1-0.1,0.1c0,0,0,0.1-0.1,0.1c-0.1,0.2-0.2,0.4-0.3,0.6c-2.4,4.8-2.2,4.1-1.4,2.5c-0.2,0.3-0.4,0.6-0.6,0.9
		c-0.1,0.1-0.2,0.3-0.3,0.4c-0.2,0.3-0.4,0.5-0.6,0.8c-0.6,0.9-1.3,1.7-2,2.5l0,0c-0.3,0.3-0.6,0.7-1,1l0,0
		c-0.1,0.1-0.2,0.2-0.3,0.3L60,60.5c0,0-0.1,0.1-0.1,0.1c-0.3,0.3-1.2,1.2-2,1.8l0,0c0,0,0,0-0.1,0.1c-0.1,0-0.1,0.1-0.1,0.1
		c-0.1,0.1-0.1,0.1-0.2,0.1c-2,1.6-4.2,3-6.5,4.2C51,66.9,51,66.9,50.9,67c-0.7,0.4-1.5,0.7-2.2,1L48.6,68l-1.4,0.5l0,0l0,0l0,0
		c-0.4,0.2-0.8,0.3-1.2,0.4l0,0c-1.5,0.5-3,0.8-4.6,1L18.6,49.5h7.7v-3.9h-2V26.4h6v1.9h3.9v-5.8l1.7,1.5v2.3h1.9v19.2h-5.7v-1.9
		h-3.9l-0.1,3.9v2h15.5v-3.9h-2V22.5l1.9,1.7v9.4l5.8,15.8l5.8-16.6v12.7h-2v3.9h7.7v-3.9h-1.9V26.3H61v-3.9l9,8.1l0,0v0.1
		c0,0.1,0,0.1,0,0.1c0,0,0,0.1,0,0.1c0,0.1,0,0.1,0.1,0.2c0,0.2,0.1,0.3,0.1,0.5c0,0.1,0,0.2,0.1,0.4c0,0.1,0.1,0.2,0.1,0.4
		C70.3,33.4,70.4,34.7,70.4,36z"/>
	<path class="st1" d="M60.8,59.8l-0.3,0.3C60.6,60,60.6,59.9,60.8,59.8L60.8,59.8z"/>
	<polygon class="st1" points="52.3,30.3 49.4,38.3 43.7,22.5 	"/>
	<polygon class="st1" points="20.6,26.4 20.6,36.9 11,28.3 14.9,28.3 14.9,26.4 	"/>
	<polygon class="st1" points="61,45.6 61,45.6 59.1,45.6 	"/>
	<path class="st1" d="M68.3,47.8c-0.4,1-0.8,2.1-1.3,3.1C67.4,49.9,67.9,48.9,68.3,47.8z"/>
</g>
</svg>
