<?xml version="1.0" encoding="utf-8"?>
<!-- Generator: Adobe Illustrator 19.1.0, SVG Export Plug-In . SVG Version: 6.00 Build 0)  -->
<svg version="1.1" id="Layer_1" xmlns="http://www.w3.org/2000/svg" xmlns:xlink="http://www.w3.org/1999/xlink" x="0px" y="0px"
	 viewBox="0 0 114 114" style="enable-background:new 0 0 114 114;" xml:space="preserve">
<style type="text/css">
	.st0{fill:#469FBD;}
	.st1{fill:#3B8BA6;}
</style>
<g>
	<path class="st0" d="M95.6,18.3c-9.9-9.8-23.6-16-38.6-16C26.8,2.3,2.3,26.8,2.3,57c0,15.1,6.1,28.7,16,38.6
		c9.9,9.9,23.6,16,38.6,16c2.9,0,5.7-0.2,8.4-0.7L29.3,78.4v-6.1h3.1V41.7h-9v3h-6.1v-9.2h36.9L57,38v-2.5h9.2l3,2.8v-2.9l9.2,25.1
		l-9.1-25.1L83,47.8l-4.6,12.8l9.2-25.1h9.2L111,48.3C109.1,36.7,103.6,26.3,95.6,18.3z M44.6,75.4v3.1h0.2v-9.2L44.6,75.4z
		 M44.6,75.4v3.1h0.2v-9.2L44.6,75.4z"/>
	<path class="st1" d="M111.7,57c0,6-1,11.8-2.8,17.2c-0.1,0.2-0.2,0.6-0.2,0.8s-0.2,0.5-0.2,0.7c-0.7,1.6-1.3,3.3-2,4.9
		c0,0.1-0.1,0.1-0.1,0.2c0,0,0,0.1-0.1,0.1c-0.2,0.3-0.3,0.7-0.5,0.9c-3.8,7.7-3.4,6.5-2.3,4c-0.2,0.4-0.6,0.9-1,1.5
		c-0.2,0.2-0.2,0.4-0.4,0.7c-0.3,0.4-0.7,0.8-1,1.3c-1,1.4-2,2.7-3.2,4l0,0c-0.4,0.5-0.9,1.1-1.6,1.6l0,0c-0.2,0.2-0.2,0.2-0.4,0.4
		L95.2,96c0,0-0.1,0.1-0.2,0.2c-0.5,0.5-1.9,1.9-3.2,2.9l0,0c0,0,0,0-0.1,0.1c-0.1,0-0.1,0.1-0.2,0.2c-0.1,0.1-0.2,0.2-0.2,0.2
		c-3.2,2.6-6.6,4.8-10.3,6.6c-0.2,0.1-0.2,0.2-0.4,0.2c-1.1,0.6-2.4,1.1-3.5,1.6l-0.2,0.1l-2.2,0.8l0,0l0,0l0,0
		c-0.7,0.2-1.3,0.4-2,0.7l0,0c-2.4,0.7-4.8,1.3-7.3,1.6L29.3,78.4h12.3v-6.1h-3.1V41.7H48v3h6.1v-9.2l2.8,2.5v3.7h3v30.6h-9.1v-3
		h-6.1l-0.2,6.1v3.1h24.6v-6.1h-3.1V35.6l3,2.8v14.9l9.2,25.1L87.4,52v20.2h-3.1v6.1h12.3v-6.1h-2.9V41.6h3v-6.1l14.2,12.8l0,0v0.1
		c0,0.1,0,0.1,0,0.2c0,0,0,0.1,0,0.2s0,0.2,0.1,0.2c0,0.2,0.1,0.5,0.1,0.7c0,0.2,0,0.3,0.1,0.6c0,0.2,0.1,0.3,0.1,0.6
		C111.5,52.9,111.7,55,111.7,57z"/>
	<path class="st1" d="M96.4,94.9L96,95.3C96.1,95.1,96.2,95.1,96.4,94.9L96.4,94.9z"/>
	<polygon class="st1" points="82.9,47.9 78.4,60.6 69.3,35.5 	"/>
	<polygon class="st1" points="32.4,41.7 32.4,58.4 17.2,44.7 23.4,44.7 23.4,41.7 	"/>
	<polygon class="st1" points="96.8,72.2 96.8,72.3 93.7,72.2 	"/>
	<path class="st1" d="M108.3,75.7c-0.6,1.6-1.2,3.3-2,4.9C107,79.1,107.7,77.5,108.3,75.7z"/>
</g>
</svg>
