<?xml version="1.0" encoding="utf-8"?>
<!-- Generator: Adobe Illustrator 19.1.0, SVG Export Plug-In . SVG Version: 6.00 Build 0)  -->
<svg version="1.1" id="Layer_1" xmlns="http://www.w3.org/2000/svg" xmlns:xlink="http://www.w3.org/1999/xlink" x="0px" y="0px"
	 viewBox="0 0 550 550" style="enable-background:new 0 0 550 550;" xml:space="preserve">
<style type="text/css">
	.st0{display:none;}
	.st1{display:inline;}
	.st2{fill:#469FBD;}
	.st3{fill:#3B8BA6;}
</style>
<g id="Icon_Grid" class="st0">
	<g id="squares" class="st1">
	</g>
	<g class="st1">
	</g>
</g>
<g id="Working_Layer">
	<path class="st2" d="M289.3,412.1c0,6.8-5.8,12.3-12.9,12.3c-7.1,0-12.9-5.5-12.9-12.3s5.8-12.3,12.9-12.3
		C283.5,399.8,289.3,405.3,289.3,412.1z"/>
	<path class="st2" d="M354.6,172v201c0,10.7-9,19.3-20.2,19.3h-116c-11.2,0-20.2-8.6-20.2-19.3V172c0-10.6,9-19.2,20.2-19.2h116
		C345.6,152.8,354.6,161.4,354.6,172z"/>
	<path class="st2" d="M387.5,66.1h-225c-52.7,0-95.8,43.1-95.8,95.8v226.3c0,52.7,43.1,95.8,95.8,95.8h320.8V161.8
		C483.3,109.2,440.2,66.1,387.5,66.1z M372,155.9v256.8c0,10.7-9,19.3-20.2,19.3H201c-5.3,0-10-1.9-13.6-5
		c-4.1-3.5-6.6-8.6-6.6-14.3V155.9c0-10.6,9-19.2,20.2-19.2h150.7c4.9,0,9.3,1.6,12.8,4.3c0,0,0,0,0.1,0l2.2,2
		C370,146.4,372,150.9,372,155.9z"/>
	<path class="st3" d="M289.3,412.1c0,6.8-5.8,12.3-12.9,12.3c-7.1,0-12.9-5.5-12.9-12.3s5.8-12.3,12.9-12.3
		C283.5,399.8,289.3,405.3,289.3,412.1z"/>
	<path class="st3" d="M354.6,172v201c0,10.7-9,19.3-20.2,19.3h-116c-11.2,0-20.2-8.6-20.2-19.3V172c0-10.6,9-19.2,20.2-19.2h116
		C345.6,152.8,354.6,161.4,354.6,172z"/>
	<path class="st3" d="M483.3,248.9v235h-234l-61.9-56.5V427c3.6,3.1,8.4,5,13.6,5h150.7c11.2,0,20.2-8.6,20.2-19.3V155.9
		c0-4.9-2-9.5-5.2-12.9L483.3,248.9z"/>
</g>
</svg>
