<?xml version="1.0" encoding="utf-8"?>
<!-- Generator: Adobe Illustrator 19.1.0, SVG Export Plug-In . SVG Version: 6.00 Build 0)  -->
<svg version="1.1" id="Layer_1" xmlns="http://www.w3.org/2000/svg" xmlns:xlink="http://www.w3.org/1999/xlink" x="0px" y="0px"
	 viewBox="0 0 550 550" style="enable-background:new 0 0 550 550;" xml:space="preserve">
<style type="text/css">
	.st0{display:none;}
	.st1{display:inline;}
	.st2{fill:#469FBD;}
	.st3{fill:#3B8BA6;stroke:#3B8BA6;stroke-miterlimit:10;}
	.st4{fill:#F1F1F2;}
</style>
<g id="Icon_Grid" class="st0">
	<g id="squares" class="st1">
	</g>
	<g class="st1">
	</g>
</g>
<g id="Working_Layer">
	<path class="st2" d="M387.5,66.1h-225c-52.7,0-95.8,43.1-95.8,95.8v226.3c0,52.7,43.1,95.8,95.8,95.8h320.8V161.8
		C483.3,109.2,440.2,66.1,387.5,66.1z M386.8,176.2l-95.6,90.4l-6.3,5.9l-2.1,2c-5.4,5.1-11.1,5.1-16.5,0l-2.1-2l-6.3-5.9
		l-95.4-90.4H386.8z M139.3,361v-0.8c-1.3-1.5-2.2-3.5-2.2-5.7V188c0-2.7,0.3-5.1,1.1-7.4l0,0c0,0,0,0,0,0c0,0,0,0,0,0l104.6,99.1
		l-99,85.6L139.3,361z M392.5,366.9H156.9c-0.7,0-1.4,0-2.1-0.1l94.3-81.3l5.3,5c6.1,5.9,13.2,8.8,20.2,8.8s14-2.9,20.2-8.8l5.3-4.9
		l94.3,81.2C393.8,366.9,393.1,366.9,392.5,366.9z M412.2,344.7c0,7.7-3.4,14.5-8.7,18.4h-0.1l-96.9-83.5L411,180.7
		c0.8,2.2,1.1,4.7,1.1,7.3V344.7z"/>
	<path class="st3" d="M137.2,184.8c0-1.5,0.4-3,1.1-4.2c-0.8,2.3-1.1,4.8-1.1,7.4V184.8z"/>
	<path class="st3" d="M412,178l-0.4,0.4c-1.5-1.3-3.5-2.2-5.7-2.2h-19.1l-95.6,90.4l-6.3,5.9l-2.1,2c-5.4,5.1-11.1,5.1-16.5,0
		l-2.1-2l-6.3-5.9l-95.4-90.4h-16.9c-3.2,0-6,1.7-7.4,4.3l104.6,99.1l-99,85.6l128.5,118.7h209.4l1.5-240.7L412,178z M392.5,366.9
		H156.9c-0.7,0-1.4,0-2.1-0.1l94.3-81.3l5.3,5c6.1,5.9,13.2,8.8,20.2,8.8s14-2.9,20.2-8.8l5.3-4.9l94.3,81.2
		C393.8,366.9,393.1,366.9,392.5,366.9z M412.2,344.7c0,7.7-3.4,14.5-8.7,18.4h-0.1l-96.9-83.5L411,180.7c0.8,2.2,1.1,4.7,1.1,7.3
		V344.7z"/>
	<g>
		<path class="st4" d="M138.3,180.5C138.3,180.5,138.3,180.5,138.3,180.5C138.3,180.5,138.3,180.5,138.3,180.5L138.3,180.5
			C138.3,180.5,138.3,180.5,138.3,180.5z"/>
		<path class="st4" d="M143.9,365.2l-0.3,0.3l-2.6-2.4c-5.3-4-3.8-10.8-3.8-18.4v9.9c0,2.2,0.8,4.1,2.2,5.7v0.8L143.9,365.2z"/>
	</g>
</g>
</svg>
