<?xml version="1.0" encoding="utf-8"?>
<!-- Generator: Adobe Illustrator 19.1.0, SVG Export Plug-In . SVG Version: 6.00 Build 0)  -->
<svg version="1.1" id="Layer_1" xmlns="http://www.w3.org/2000/svg" xmlns:xlink="http://www.w3.org/1999/xlink" x="0px" y="0px"
	 viewBox="0 0 16 16" style="enable-background:new 0 0 16 16;" xml:space="preserve">
<style type="text/css">
	.st0{fill:#469FBD;}
	.st1{fill:#3B8BA6;}
</style>
<g>
	<path class="st0" d="M13.5,2.5C12.1,1.1,10.1,0.2,8,0.2C3.7,0.2,0.2,3.7,0.2,8c0,2.1,0.9,4.1,2.3,5.5s3.4,2.3,5.5,2.3
		c0.4,0,0.8,0,1.2-0.1l-5.1-4.6v-0.9h0.4V5.8H3.2v0.4H2.4V4.9h5.3L8,5.3V4.9h1.3l0.4,0.4V4.9L11,8.5L9.7,4.9l2,1.8l-0.7,1.8l1.3-3.6
		h1.3l2,1.8C15.4,5.1,14.6,3.6,13.5,2.5z M6.2,10.6v0.4h0V9.7L6.2,10.6z M6.2,10.6v0.4h0V9.7L6.2,10.6z"/>
	<path class="st1" d="M15.8,8c0,0.8-0.1,1.7-0.4,2.4c0,0,0,0.1,0,0.1c0,0,0,0.1,0,0.1c-0.1,0.2-0.2,0.5-0.3,0.7c0,0,0,0,0,0
		c0,0,0,0,0,0c0,0,0,0.1-0.1,0.1c-0.5,1.1-0.5,0.9-0.3,0.6c0,0.1-0.1,0.1-0.1,0.2c0,0,0,0.1-0.1,0.1c0,0.1-0.1,0.1-0.1,0.2
		c-0.1,0.2-0.3,0.4-0.5,0.6l0,0c-0.1,0.1-0.1,0.2-0.2,0.2l0,0c0,0,0,0-0.1,0.1l-0.1,0.1c0,0,0,0,0,0c-0.1,0.1-0.3,0.3-0.5,0.4l0,0
		c0,0,0,0,0,0c0,0,0,0,0,0c0,0,0,0,0,0c-0.5,0.4-0.9,0.7-1.5,0.9c0,0,0,0-0.1,0c-0.2,0.1-0.3,0.2-0.5,0.2l0,0l-0.3,0.1l0,0l0,0l0,0
		c-0.1,0-0.2,0.1-0.3,0.1l0,0c-0.3,0.1-0.7,0.2-1,0.2l-5.1-4.6h1.7v-0.9H5.4V5.8h1.4v0.4h0.9V4.9L8,5.3v0.5h0.4v4.4H7.1V9.7H6.3
		l0,0.9v0.4h3.5v-0.9H9.3V4.9l0.4,0.4v2.1L11,11l1.3-3.7v2.9h-0.4V11h1.7v-0.9h-0.4V5.8h0.4V4.9l2,1.8l0,0v0c0,0,0,0,0,0
		c0,0,0,0,0,0c0,0,0,0,0,0c0,0,0,0.1,0,0.1c0,0,0,0,0,0.1c0,0,0,0,0,0.1C15.8,7.4,15.8,7.7,15.8,8z"/>
	<path class="st1" d="M13.6,13.4L13.6,13.4C13.6,13.4,13.6,13.4,13.6,13.4L13.6,13.4z"/>
	<polygon class="st1" points="11.7,6.7 11,8.5 9.7,4.9 	"/>
	<polygon class="st1" points="4.5,5.8 4.5,8.2 2.3,6.3 3.2,6.3 3.2,5.8 	"/>
	<polygon class="st1" points="13.7,10.2 13.7,10.2 13.2,10.2 	"/>
	<path class="st1" d="M15.3,10.7c-0.1,0.2-0.2,0.5-0.3,0.7C15.1,11.1,15.2,10.9,15.3,10.7z"/>
</g>
</svg>
