<?xml version="1.0" encoding="utf-8"?>
<!-- Generator: Adobe Illustrator 19.1.0, SVG Export Plug-In . SVG Version: 6.00 Build 0)  -->
<svg version="1.1" id="Layer_1" xmlns="http://www.w3.org/2000/svg" xmlns:xlink="http://www.w3.org/1999/xlink" x="0px" y="0px"
	 viewBox="0 0 550 550" style="enable-background:new 0 0 550 550;" xml:space="preserve">
<style type="text/css">
	.st0{display:none;}
	.st1{display:inline;}
	.st2{fill:#469FBD;}
	.st3{fill:#3B8BA6;}
	.st4{fill:#333333;}
	.st5{fill:#F2F2F2;}
</style>
<g id="Icon_Grid" class="st0">
	<g id="squares" class="st1">
	</g>
	<g class="st1">
	</g>
</g>
<g id="Working_Layer">
	<path class="st2" d="M225.2,298.9H200c-1.1,0-2.1,0.2-3.1,0.5c-4.3,1.4-7.5,5.4-7.5,10.2v14.8c0,4.6,3,8.6,7.2,10.1
		c1.1,0.4,2.3,0.6,3.5,0.6h25.1c5.9,0,10.7-4.8,10.7-10.7v-14.8C235.8,303.7,231,298.9,225.2,298.9z M354.8,299
		c-0.6-0.1-1.2-0.1-1.8-0.1h-25.1c-5.9,0-10.7,4.8-10.7,10.7v14.8c0,5.9,4.8,10.7,10.7,10.7H353c0.7,0,1.4-0.1,2.1-0.2
		c4.9-1,8.5-5.3,8.5-10.4v-14.8C363.7,304.3,359.8,299.9,354.8,299z M354.8,299c-0.6-0.1-1.2-0.1-1.8-0.1h-25.1
		c-5.9,0-10.7,4.8-10.7,10.7v14.8c0,5.9,4.8,10.7,10.7,10.7H353c0.7,0,1.4-0.1,2.1-0.2c4.9-1,8.5-5.3,8.5-10.4v-14.8
		C363.7,304.3,359.8,299.9,354.8,299z M225.2,298.9H200c-1.1,0-2.1,0.2-3.1,0.5c-4.3,1.4-7.5,5.4-7.5,10.2v14.8
		c0,4.6,3,8.6,7.2,10.1c1.1,0.4,2.3,0.6,3.5,0.6h25.1c5.9,0,10.7-4.8,10.7-10.7v-14.8C235.8,303.7,231,298.9,225.2,298.9z
		 M387.5,66.1h-225c-52.7,0-95.8,43.1-95.8,95.8v226.3c0,52.7,43.1,95.8,95.8,95.8h320.8V161.8C483.3,109.2,440.2,66.1,387.5,66.1z
		 M160.9,261.7c0.2-4.2,1.9-8.1,4.8-11l103-103c1.4-1.4,3.1-2.3,5-2.7v34.7c-5-0.1-8.9,5.3-8.9,5.3L160.1,289.7
		C160.4,281.5,160.9,262,160.9,261.7z M383.5,374.1c0,5.9-4.8,10.7-10.7,10.7h-68.3v-75.2c0-5.9-4.8-10.7-10.7-10.7h-31.4
		c-5.9,0-10.7,4.8-10.7,10.7v75.2h-72.9c-2.2,0-4.2-0.7-5.9-1.8c0,0,0,0,0,0l-2.1-1.9c-1.6-1.9-2.6-4.3-2.6-6.9v-84
		c0-0.3,0-0.5,0-0.7l82-82l18.5-18.4c0,0,0.1-0.1,0.2-0.2c0.6-0.6,1.3-1.1,2.1-1.5c1.4-0.7,2.9-1.1,4.4-1.2c0.3,0,0.5,0,0.8,0
		c2.5,0.1,4.8,1,6.6,2.7c0,0,0.1,0.1,0.1,0.1c3.7,3.7,75.9,75.9,100.6,100.6c0,0.2,0,0.4,0,0.6V374.1z M385.9,250.7
		c3,2.9,4.7,6.8,4.8,11c0,0.3,0.5,19.7,0.8,28L285.2,183.4c-0.1-0.1-0.2-0.2-0.2-0.2c-1-1-2.2-1.8-3.5-2.4c-0.9-0.4-1.8-0.7-2.8-0.9
		v-34.6l4.2,2.5L385.9,250.7z M354.8,299c-0.6-0.1-1.2-0.1-1.8-0.1h-25.1c-5.9,0-10.7,4.8-10.7,10.7v14.8c0,5.9,4.8,10.7,10.7,10.7
		H353c0.7,0,1.4-0.1,2.1-0.2c4.9-1,8.5-5.3,8.5-10.4v-14.8C363.7,304.3,359.8,299.9,354.8,299z M225.2,298.9H200
		c-1.1,0-2.1,0.2-3.1,0.5c-4.3,1.4-7.5,5.4-7.5,10.2v14.8c0,4.6,3,8.6,7.2,10.1c1.1,0.4,2.3,0.6,3.5,0.6h25.1
		c5.9,0,10.7-4.8,10.7-10.7v-14.8C235.8,303.7,231,298.9,225.2,298.9z"/>
	<path class="st3" d="M196.6,334.4c-4.2-1.5-7.2-5.4-7.2-10.1v-14.8c0-4.8,3.2-8.8,7.5-10.2c1-0.3,2.1-0.5,3.1-0.5h25.1
		c5.9,0,10.7,4.8,10.7,10.7v14.8c0,5.9-4.8,10.7-10.7,10.7H200C198.8,335,197.7,334.8,196.6,334.4z"/>
	<path class="st3" d="M327.9,335c-5.9,0-10.7-4.8-10.7-10.7v-14.8c0-5.9,4.8-10.7,10.7-10.7H353c0.6,0,1.2,0.1,1.8,0.1
		c5,0.9,8.9,5.3,8.9,10.5v14.8c0,5.1-3.7,9.5-8.5,10.4c-0.7,0.1-1.4,0.2-2.1,0.2H327.9z"/>
	<path class="st3" d="M483.3,329.6v154.3h-198l-112.3-101c1.7,1.1,3.7,1.8,5.9,1.8h72.9v-75.2c0-5.9,4.8-10.7,10.7-10.7h31.4
		c5.9,0,10.7,4.8,10.7,10.7v75.2h68.3c5.9,0,10.7-4.8,10.7-10.7v-84c0-0.2,0-0.4,0-0.6c-24.7-24.7-96.9-96.9-100.6-100.6
		c0,0-0.1-0.1-0.1-0.1c-1.8-1.7-4.1-2.7-6.6-2.7c-0.3,0-0.5,0-0.8,0c-1.6,0-3.1,0.5-4.4,1.2c-0.8,0.4-1.5,0.9-2.1,1.5
		c-0.1,0.1-0.1,0.1-0.2,0.2l-18.5,18.4l-82,82c0,0.3,0,0.5,0,0.7v7l-8.1-7.4L264.8,185c0,0,3.9-5.4,8.9-5.3v-34.7l5,3.8v31
		c1,0.2,1.9,0.5,2.8,0.9c1.3,0.6,2.5,1.4,3.5,2.4c0,0,0.1,0.1,0.2,0.2l106.3,106.3c-0.2-8.2-0.8-27.7-0.8-28c-0.2-4.1-1.9-8-4.8-11
		l-103-103L483.3,329.6z"/>
	<g>
		<path class="st4" d="M241.5,209.1L241.5,209.1z"/>
		<path class="st4" d="M170.8,381c0.6,0.7,1.3,1.4,2.1,1.9L170.8,381z"/>
		<path class="st4" d="M282.9,147.8l-4.2-2.5C280.3,145.7,281.7,146.6,282.9,147.8z"/>
		<path class="st4" d="M310.2,209.1L310.2,209.1z"/>
		<g>
			<path class="st4" d="M273.7,179.7c-0.8,0.1-1.5,0.3-2.3,0.5c-1.8,0.6-3.4,1.6-4.7,2.9c-0.1,0.1-0.2,0.2-0.3,0.3L160.1,289.7
				L264.8,185C264.8,185,268.7,179.6,273.7,179.7z"/>
		</g>
		<path class="st5" d="M276.2,182.8h-0.8C275.7,182.8,275.9,182.8,276.2,182.8z"/>
	</g>
</g>
</svg>
