<?xml version="1.0" encoding="utf-8"?>
<!-- Generator: Adobe Illustrator 19.1.0, SVG Export Plug-In . SVG Version: 6.00 Build 0)  -->
<svg version="1.1" id="Layer_1" xmlns="http://www.w3.org/2000/svg" xmlns:xlink="http://www.w3.org/1999/xlink" x="0px" y="0px"
	 viewBox="0 0 149 146" style="enable-background:new 0 0 149 146;" xml:space="preserve">
<style type="text/css">
	.st0{fill:#469FBD;}
	.st1{fill:#3B8BA6;}
</style>
<g>
	<path class="st0" d="M121.4,25.4C109.3,13.4,92.6,5.9,74.2,5.9C37.3,5.9,7.4,35.8,7.4,72.7c0,18.4,7.5,35.1,19.6,47.2
		c12.1,12.1,28.8,19.6,47.2,19.6c3.5,0,7-0.3,10.3-0.8L40.4,98.9v-7.5h3.8V54h-11v3.7h-7.5V46.5h45.1l3.4,3v-3h11.2l3.7,3.4v-3.5
		l11.2,30.7L89.2,46.4l16.8,15.1l-5.6,15.6l11.2-30.7h11.2l17.4,15.7C137.9,47.9,131.2,35.2,121.4,25.4z M59.1,95.2v3.8h0.2V87.7
		L59.1,95.2z M59.1,95.2v3.8h0.2V87.7L59.1,95.2z"/>
	<path class="st1" d="M141,72.7c0,7.3-1.2,14.4-3.4,21c-0.1,0.3-0.2,0.7-0.3,1c-0.1,0.3-0.2,0.6-0.3,0.9c-0.8,2-1.6,4-2.5,6
		c0,0.1-0.1,0.1-0.1,0.2c0,0,0,0.1-0.1,0.1c-0.2,0.4-0.4,0.8-0.6,1.1c-4.7,9.4-4.2,8-2.8,4.9c-0.3,0.5-0.7,1.1-1.2,1.8
		c-0.2,0.2-0.3,0.5-0.5,0.8c-0.4,0.5-0.8,1-1.2,1.6c-1.2,1.7-2.5,3.3-3.9,4.9c0,0,0,0,0,0c-0.5,0.6-1.1,1.3-1.9,2l0,0
		c-0.2,0.2-0.3,0.3-0.5,0.5l-0.8,0.8c0,0-0.1,0.1-0.2,0.2c-0.6,0.6-2.3,2.3-3.9,3.5l0,0c0,0,0,0-0.1,0.1c-0.1,0-0.1,0.1-0.2,0.2
		c-0.1,0.1-0.2,0.2-0.3,0.2c-3.9,3.2-8.1,5.9-12.6,8.1c-0.2,0.1-0.3,0.2-0.5,0.3c-1.4,0.7-2.9,1.4-4.3,1.9l-0.2,0.1l-2.7,1
		c0,0,0,0,0,0c0,0,0,0,0,0s0,0,0,0c-0.8,0.3-1.6,0.5-2.4,0.8c0,0,0,0,0,0c-2.9,0.9-5.9,1.6-8.9,2L40.4,98.9h15v-7.5h-3.8V54h11.6
		v3.7h7.5V46.5l3.4,3V54h3.7v37.4H66.7v-3.7h-7.5l-0.2,7.5v3.8h30.1v-7.5h-3.8V46.5l3.7,3.4v18.2l11.2,30.7l11.2-32.2v24.7h-3.8v7.5
		h15v-7.5H119V53.9h3.7v-7.5l17.4,15.7c0,0,0,0,0,0c0,0,0,0.1,0,0.1c0,0.1,0,0.1,0,0.2c0,0,0,0.1,0,0.2c0,0.1,0,0.2,0.1,0.3
		c0,0.3,0.1,0.6,0.1,0.9c0,0.2,0,0.4,0.1,0.7c0,0.2,0.1,0.4,0.1,0.7C140.8,67.7,141,70.2,141,72.7z"/>
	<path class="st1" d="M122.3,119l-0.5,0.5C122,119.3,122.1,119.2,122.3,119L122.3,119z"/>
	<polygon class="st1" points="105.9,61.6 100.3,77.1 89.2,46.4 	"/>
	<polygon class="st1" points="44.2,54 44.2,74.4 25.6,57.7 33.1,57.7 33.1,54 	"/>
	<polygon class="st1" points="122.8,91.3 122.8,91.4 119,91.3 	"/>
	<path class="st1" d="M136.9,95.6c-0.7,2-1.5,4-2.5,6C135.3,99.7,136.2,97.7,136.9,95.6z"/>
</g>
</svg>
