<?xml version="1.0" encoding="utf-8"?>
<!-- Generator: Adobe Illustrator 19.1.0, SVG Export Plug-In . SVG Version: 6.00 Build 0)  -->
<svg version="1.1" id="Logo" xmlns="http://www.w3.org/2000/svg" xmlns:xlink="http://www.w3.org/1999/xlink" x="0px" y="0px"
	 viewBox="0 0 176 104" style="enable-background:new 0 0 176 104;" xml:space="preserve">
<style type="text/css">
	.st0{fill:#1C1B1D;}
</style>
<polygon id="M" class="st0" points="113.2,44.1 113.2,6.8 132.5,59.5 151.7,6.8 171,6.8 171,19.7 164.6,19.7 164.6,83.9 171,83.9 
	171,96.8 145.3,96.8 145.3,83.9 151.7,83.9 151.7,41.5 132.5,96.8 "/>
<polygon id="L" class="st0" points="106.9,44.2 106.9,84.1 113.3,84.1 113.3,96.9 61.9,96.9 61.9,77.6 74.7,77.6 74.7,84.1 94,84.1 
	94,19.8 87.6,19.8 87.6,6.9 106.9,6.9 "/>
<path id="T" class="st0" d="M29.6,96.9V84.1H36V19.8h-19v6.4H4.2V6.9h77.5v19.3H68.8v-6.4h-20v64.3h6.4v12.9H29.6z"/>
</svg>
