<?xml version="1.0" encoding="utf-8"?>
<!-- Generator: Adobe Illustrator 19.1.0, SVG Export Plug-In . SVG Version: 6.00 Build 0)  -->
<svg version="1.1" id="Layer_1" xmlns="http://www.w3.org/2000/svg" xmlns:xlink="http://www.w3.org/1999/xlink" x="0px" y="0px"
	 viewBox="0 0 550 550" style="enable-background:new 0 0 550 550;" xml:space="preserve">
<style type="text/css">
	.st0{display:none;}
	.st1{display:inline;}
	.st2{fill:#469FBD;}
	.st3{fill:#3B8BA6;}
	.st4{fill:#FFFFFF;}
</style>
<g id="Icon_Grid" class="st0">
	<g id="squares" class="st1">
	</g>
	<g class="st1">
	</g>
</g>
<g id="Working_Layer">
	<g>
		<path class="st2" d="M369.8,261.9c-0.7,55.5-46,100.8-101.4,101.6c-57.6,0.9-104.6-45.6-104.6-103c0-37.2,19.7-69.8,49.3-87.9
			c0.4-0.2,0.7-0.4,1.1-0.7c1.4-0.8,2.8-1.6,4.2-2.3c14.5-7.7,31-12.1,48.5-12.1C324.1,157.6,370.5,204.4,369.8,261.9z"/>
		<path class="st2" d="M387.5,66.1h-225c-52.7,0-95.8,43.1-95.8,95.8v226.3c0,52.7,43.1,95.8,95.8,95.8h225
			c52.7,0,95.8-43.1,95.8-95.8V161.8C483.3,109.2,440.2,66.1,387.5,66.1z M448.1,414.5L425,437.6c-5.4,5.4-14.4,5.4-19.8,0
			l-18.6-17.3c-21.6-20.1-52-27-80.4-19.1c-12.5,3.5-25.7,5.4-39.4,5.4c-40.4,0-77-16.4-103.4-43c-26.3-26.4-42.5-62.8-42.5-103
			c0-80.6,65.4-146,146-146c31.5,0,60.7,10,84.5,26.9c37.2,26.5,61.5,69.9,61.5,119c0,12.5-1.6,24.7-4.6,36.3
			c-7.7,29.9,1.2,61.7,23.8,82.8l16.1,15C453.6,400.1,453.6,409,448.1,414.5z"/>
		<path class="st3" d="M163.8,260.6c0-37.2,19.7-69.8,49.3-87.9c0.4-0.2,0.7-0.4,1.1-0.7c1.4-0.8,2.8-1.6,4.2-2.3
			c15-8,32.3-12.5,50.6-12.1c55.2,1.1,100.1,46.4,100.8,101.6c0.7,57.5-45.7,104.4-103,104.4C209.9,363.6,163.8,317.5,163.8,260.6z"
			/>
		<path class="st3" d="M483.3,250.1v233.8H307.4L163.8,365.4c0,0-0.2-0.6-0.4-1.8c26.4,26.5,63,43,103.4,43
			c29.4,0,56.7-8.7,79.6-23.6l58.8,54.7c5.5,5.4,14.4,5.4,19.8,0l23.2-23.2c5.4-5.4,5.4-14.4,0-19.8l-58.8-54.7
			c14.8-22.8,23.4-50.1,23.4-79.4c0-49.1-24.3-92.6-61.5-119c0.8,0.2,1.2,0.4,1.2,0.4L483.3,250.1z"/>
		<path class="st4" d="M448.1,394.7l-58.8-54.7c14.8-22.8,23.4-50.1,23.4-79.4c0-49.1-24.3-92.6-61.5-119
			c-23.8-17-53-26.9-84.5-26.9c-80.6,0-146,65.3-146,146c0,40.2,16.3,76.6,42.5,103c26.4,26.5,63,43,103.4,43
			c29.4,0,56.7-8.7,79.6-23.6l58.8,54.7c5.5,5.4,14.4,5.4,19.8,0l23.2-23.2C453.6,409,453.6,400.1,448.1,394.7z M268.3,363.6
			c-57.6,0.9-104.6-45.6-104.6-103c0-37.2,19.7-69.8,49.3-87.9c0.4-0.2,0.7-0.4,1.1-0.7c1.4-0.8,2.8-1.6,4.2-2.3
			c14.5-7.7,31-12.1,48.5-12.1c57.4,0,103.8,46.9,103,104.4C369.1,317.4,323.8,362.7,268.3,363.6z"/>
	</g>
</g>
</svg>
