<?xml version="1.0" encoding="utf-8"?>
<!-- Generator: Adobe Illustrator 19.1.0, SVG Export Plug-In . SVG Version: 6.00 Build 0)  -->
<svg version="1.1" id="Layer_1" xmlns="http://www.w3.org/2000/svg" xmlns:xlink="http://www.w3.org/1999/xlink" x="0px" y="0px"
	 viewBox="0 0 550 550" style="enable-background:new 0 0 550 550;" xml:space="preserve">
<style type="text/css">
	.st0{display:none;}
	.st1{display:inline;}
	.st2{fill:#469FBD;}
	.st3{fill:#3B8BA6;}
	.st4{fill:#F1F1F2;}
</style>
<g id="Icon_Grid" class="st0">
	<g id="squares" class="st1">
	</g>
	<g class="st1">
	</g>
</g>
<g id="Working_Layer">
	<path class="st2" d="M387.5,66.1h-225c-52.7,0-95.8,43.1-95.8,95.8v226.3c0,52.7,43.1,95.8,95.8,95.8h320.8V161.8
		C483.3,109.2,440.2,66.1,387.5,66.1z M159.7,352.4c0-24.9,11.4-40.9,19.3-40.9c3,0,6.6,2.4,9.8,6.7l0,0c5.1,6.9,9.5,18.9,9.5,34.2
		c0,24.9-11.4,40.9-19.3,40.9c-1.8,0-3.8-0.9-5.9-2.5C166.5,385.4,159.7,371.5,159.7,352.4z M344.6,405.9H205.5
		c11-11.9,18.1-31.3,18.1-53.5c0-0.8,0-1.7,0-2.5v0c0.2-0.9,3.3-16.8-4.2-26.1c0,0,0,0,0,0c-7.1-22.3-22.3-37.5-40.3-37.5h-0.8
		c9.3-13.4,20.6-22.7,33.5-28.9c14.9,13.2,34.6,21.2,56.3,21.2c1.3,0,2.6,0,3.8-0.1c20.2-0.9,38.5-8.7,52.5-21.1
		c13.5,6.5,25.4,16.4,35,31.1c-19.1,7.5-32.8,32.9-32.8,64C326.5,374.7,333.6,394,344.6,405.9z M383.8,381.8
		C383.8,381.9,383.8,381.9,383.8,381.8c-3.9,7.4-8.8,11.5-12.8,11.5c-7.8,0-19.3-16-19.3-40.9c0-24.8,11.3-40.7,19.1-40.9
		c0.1,0,0.1,0,0.1,0c7.9,0,19.3,16,19.3,40.9C390.3,364.7,387.5,374.7,383.8,381.8z M326.5,197.1c0,22.5-13.9,42-33.9,51
		c-7.5,3.3-15.8,5.2-24.6,5.2c-8.8,0-17.1-1.9-24.6-5.2c-5.2-2.3-10-5.3-14.2-8.9l-3.3-3c-10.2-10.1-16.4-23.8-16.4-39
		c0-30.9,26.2-56.1,58.5-56.1c1.1,0,2.2,0,3.2,0.1c0.7,0,1.5,0.1,2.2,0.2c0.8,0.1,1.5,0.2,2.3,0.3c0.8,0.1,1.5,0.2,2.2,0.3
		c0.3,0,0.6,0.1,0.9,0.2c0.8,0.1,1.6,0.3,2.4,0.5c0.9,0.2,1.9,0.4,2.8,0.7c0.5,0.1,0.9,0.3,1.4,0.4c0.1,0,0.1,0,0.1,0
		c0.9,0.3,1.7,0.5,2.6,0.8c1.3,0.5,2.7,1,4,1.5c0.3,0.1,0.7,0.3,1,0.5c0.9,0.4,1.9,0.9,2.8,1.3c0.4,0.2,0.8,0.4,1.2,0.7
		c0.4,0.2,0.8,0.5,1.2,0.7c0.4,0.2,0.8,0.5,1.2,0.7c0.8,0.5,1.6,1,2.3,1.5c0.4,0.3,0.8,0.5,1.1,0.8c0.4,0.3,0.8,0.5,1.1,0.8
		c0.4,0.3,0.7,0.5,1.1,0.8c0.4,0.3,0.7,0.6,1.1,0.9c0.7,0.6,1.4,1.1,2,1.7c0.4,0.3,0.7,0.7,1.1,1l0.3,0.2
		C320,167.8,326.5,181.7,326.5,197.1z"/>
	<path class="st3" d="M219.3,323.7l-41.1-37.5h0.8C197,286.2,212.2,301.3,219.3,323.7z"/>
	<path class="st3" d="M309.5,157.6c10.5,10.2,17,24.1,17,39.5c0,22.5-13.9,42-33.9,51c-7.5,3.3-15.8,5.2-24.6,5.2
		c-8.8,0-17.1-1.9-24.6-5.2c-5.2-2.3-10-5.3-14.2-8.9l42.6,39.3v0c20.2-0.9,38.5-8.7,52.5-21.1c13.5,6.5,25.4,16.4,35,31.1
		c-19.1,7.5-32.8,32.9-32.8,64c0,22.3,7.1,41.7,18.1,53.5H205.5c11-11.9,18.1-31.3,18.1-53.5c0-0.8,0-1.7,0-2.5c0,0,0,0,0,0
		l-34.7-31.7c5.1,6.9,9.5,18.9,9.5,34.2c0,24.9-11.4,40.9-19.3,40.9c-1.8,0-3.8-0.9-5.9-2.5l-0.1,0.7l101.6,92.4h208.7V316
		L309.5,157.6z M383.8,381.8C383.8,381.9,383.8,381.9,383.8,381.8c-3.9,7.4-8.8,11.5-12.8,11.5c-7.8,0-19.3-16-19.3-40.9
		c0-24.8,11.3-40.7,19.1-40.9c0.1,0,0.1,0,0.1,0c7.9,0,19.3,16,19.3,40.9C390.3,364.7,387.5,374.7,383.8,381.8z"/>
	<g>
		<path class="st4" d="M223.5,349.8c-0.2-9.4-1.7-18.2-4.2-26.1C226.8,333,223.7,348.9,223.5,349.8z"/>
		<path class="st4" d="M229.3,239.1c-1.1-1-2.2-2-3.3-3L229.3,239.1z"/>
	</g>
</g>
</svg>
